[center]
[URL=http://img7.imageshack.us/i/planetdinosaur.jpg/][IMG]http://img7.imageshack.us/img7/7870/planetdinosaur.jpg[/IMG][/URL]
-=-=-=-=-=-=-=-=-=-=-=-


[b]Planet Dinosaur [/b]
-------------------

Season 1 Episode 5 of 6

New Giants 
-----------
The documentary series brings to life the heavyweights of the dinosaur world, 
creatures that have only been unearthed in recent years. The 125ft-long argentinosaurus, which roamed South America 95 million years ago, was the creature that eclipsed all others - and remains the largest dinosaur ever discovered. For years, these colossal plant-eaters were considered immune to attack from any predator - until the discovery of new giant killer the mapusaurus, whose fate was inextricably linked to the argentinosaurus

Category Documentary

Executive Producer Andrew Cohen

Series Producer Nigel Paterson

Cast 
Narrator John Hurt 
 
h**p://uk.imdb.com/title/tt1998816/
-=-=-=-=-=-=-=-=-=-

[b]File info[/b]

Format                           : AVI
Format/Info                      : Audio Video Interleave
File size                        : 351 MiB
Duration                         : 28mn 40s
Overall bit rate                 : 1 713 Kbps
Writing application              : Lavf52.31.0
Writing library                  : VirtualDub build 32842/release

Video
ID                               : 0
Format                           : MPEG-4 Visual
Format profile                   : Simple@L1
Format settings, BVOP            : No
Format settings, QPel            : No
Format settings, GMC             : No warppoints
Format settings, Matrix          : Default (H.263)
Codec ID                         : XVID
Codec ID/Hint                    : XviD
Duration                         : 28mn 40s
Bit rate                         : 1 573 Kbps
Width                            : 720 pixels
Height                           : 420 pixels
Display aspect ratio             : 16:9
Frame rate                       : 29.970 fps
Color space                      : YUV
Chroma subsampling               : 4:2:0
Bit depth                        : 8 bits
Scan type                        : Progressive
Compression mode                 : Lossy
Bits/(Pixel*Frame)               : 0.174
Stream size                      : 323 MiB (92%)
Writing library                  : Lavc52.41.0

Audio
ID                               : 1
Format                           : MPEG Audio
Format version                   : Version 1
Format profile                   : Layer 3
Mode                             : Joint stereo
Mode extension                   : MS Stereo
Codec ID                         : 55
Codec ID/Hint                    : MP3
Duration                         : 28mn 40s
Bit rate mode                    : Constant
Bit rate                         : 128 Kbps
Channel(s)                       : 2 channels
Sampling rate                    : 44.1 KHz
Compression mode                 : Lossy
Stream size                      : 26.3 MiB (7%)
Alignment                        : Split accross interleaves
Interleave, duration             : 33 ms (1.00 video frame)
Interleave, preload duration     : 500 ms

spoken language: Engish

--------------------------------

[b]Screenshots[/b]

[URL=http://img444.imageshack.us/i/bbcplanetdinosaurs01e05.jpg/][IMG]http://img444.imageshack.us/img444/1718/bbcplanetdinosaurs01e05.jpg[/IMG][/URL]

[b]Hash:[/b]
76C052126F4DB5CCC43B8E6AC1BB589B95C8E06D

[/center]

